<?xml version="1.0" encoding="iso-8859-1"?>
<!-- Generator: Adobe Illustrator 19.0.0, SVG Export Plug-In . SVG Version: 6.00 Build 0)  -->
<svg version="1.1" id="Capa_1" xmlns="http://www.w3.org/2000/svg" xmlns:xlink="http://www.w3.org/1999/xlink" x="0px" y="0px"
	 viewBox="0 0 512 512" style="enable-background:new 0 0 512 512;" xml:space="preserve">
<g>
	<g>
		<path d="M509.21,494.146L99.272,45.161c33.006-18.836,97.734-23.813,124.729-23.828c5.896,0,10.667-4.781,10.667-10.667
			C234.668,4.771,229.887,0,224.001,0c-12.19,0-95.424,1.07-139.28,29.224L70.022,13.125C62.407,4.781,51.574,0,40.272,0
			C18.064,0,0.001,18.063,0.001,40.271c0,11.302,4.781,22.135,13.125,29.74l34.941,31.904c-3.41,17.456-5.4,36.742-5.4,58.086
			c0,128.104-18.844,168.073-31.313,194.531c-6.094,12.917-11.354,24.073-11.354,40.135C0.001,446.5,105.324,448,117.335,448
			c56.885,0,117.333-18.688,117.333-53.333s-60.448-53.333-117.333-53.333c-5.896,0-10.667,4.771-10.667,10.667
			c0,5.896,4.771,10.667,10.667,10.667c58.604,0,96,18.948,96,32s-37.396,32-96,32c-38.708-0.031-96-10.219-96-32
			c0-11.281,3.708-19.146,9.313-31.042C43.928,335.458,64.001,292.875,64.001,160c0-14.767,1.19-28.165,2.915-40.876l427.23,390.085
			c2.042,1.865,4.615,2.792,7.188,2.792c2.729,0,5.469-1.042,7.542-3.125C512.907,504.844,513.053,498.354,509.21,494.146z
			 M27.501,54.25c-3.917-3.573-6.167-8.667-6.167-13.979c0-10.438,8.5-18.938,18.937-18.938c5.313,0,10.406,2.25,13.99,6.167
			L68.72,43.336c-1.592,1.928-2.961,3.969-4.228,6.072l-3.616-3.616c-4.167-4.167-10.917-4.167-15.083,0
			c-4.167,4.167-4.167,10.917,0,15.083l21.333,21.333c2.083,2.083,4.813,3.125,7.542,3.125s5.458-1.042,7.542-3.125
			c4.167-4.167,4.167-10.917,0-15.083l-1.745-1.745c0.661-2.115,1.613-4.13,2.853-6.056L335.21,335.208L27.501,54.25z"/>
	</g>
</g>
<g>
</g>
<g>
</g>
<g>
</g>
<g>
</g>
<g>
</g>
<g>
</g>
<g>
</g>
<g>
</g>
<g>
</g>
<g>
</g>
<g>
</g>
<g>
</g>
<g>
</g>
<g>
</g>
<g>
</g>
</svg>
